<svg xmlns="http://www.w3.org/2000/svg"
     xmlns:xlink="http://www.w3.org/1999/xlink"
     width="256" height="256">
    <!--

    -->

    <path d="
            M35,220
            C0,80 105,60 150,50
            C230,40 225,40 240,32
            C230,100 225,200 150,230
            C150,228 125,250 50,230
            C70,170 125,140 180,100
            C190,92 195,90 200,80
            C180,95 175,95 170,99
            C163,102 156,109 150,112
            C140,120 130,125 120,132
            C110,138 100,145 90,152
            C110,138 100,145 90,152
            C70,170 55,185 40,210
            z"
          style="stroke: #00cc00; fill:#00cc00;"/>


</svg>
